<!DOCTYPE svg PUBLIC "-//W3C//DTD SVG 1.1//EN" "http://www.w3.org/Graphics/SVG/1.1/DTD/svg11.dtd">
<!-- Uploaded to: SVG Repo, www.svgrepo.com, Transformed by: SVG Repo Mixer Tools -->
<svg width="800px" height="800px" viewBox="0 0 18 18" xmlns="http://www.w3.org/2000/svg" mirror-in-rtl="true" fill="#ffffff">
<g id="SVGRepo_bgCarrier" stroke-width="0"/>
<g id="SVGRepo_tracerCarrier" stroke-linecap="round" stroke-linejoin="round"/>
<g id="SVGRepo_iconCarrier"> <path fill="#16A34A" d="M17 0H1a1 1 0 0 0-1 1v16a1 1 0 0 0 1 1h16a1 1 0 0 0 1-1V1a1 1 0 0 0-1-1zM3 16a1 1 0 0 1 0-2 1 1 0 0 1 0 2zm0-4a.945.945 0 0 1-1-1 .945.945 0 0 1 1-1 .945.945 0 0 1 1 1 .945.945 0 0 1-1 1zm0-4a.945.945 0 0 1-1-1 .945.945 0 0 1 1-1 .945.945 0 0 1 1 1 .945.945 0 0 1-1 1zm0-4a.945.945 0 0 1-1-1 .945.945 0 0 1 1-1 .945.945 0 0 1 1 1 .945.945 0 0 1-1 1zm12 12H7a1 1 0 0 1 0-2h8a1 1 0 0 1 0 2zm0-4H7a1 1 0 0 1 0-2h8a1 1 0 0 1 0 2zm0-4H7a1 1 0 0 1 0-2h8a1 1 0 0 1 0 2zm0-4H7a1 1 0 0 1 0-2h8a1 1 0 0 1 0 2z"/> </g>
</svg>